#N canvas 546 386 699 560 10;
#X obj 166 134 frenchBell~;
#X obj 178 76 tgl 15 0 empty empty empty 17 7 0 10 -262144 -1 -1 0
1;
#X obj 192 235 dac~;
#X connect 0 0 2 0;
#X connect 0 1 2 1;
#X connect 1 0 0 4;
