#N canvas 658 63 822 640 10;
#X obj 127 48 adc~ 1;
#X obj 124 568 dac~ 1;
#X obj 126 218 vtbdi-pr~;
#X obj 125 400 vtbdi-mid~;
#X obj 124 487 vtbdi-bt~;
#X obj 152 431 hsl 128 15 0 1 0 1 empty empty LOW -2 -8 0 10 -262144
-1 -1 6200 1;
#X obj 178 461 hsl 128 15 0 1 0 1 empty empty HIGH -2 -8 0 10 -262144
-1 -1 6400 1;
#X obj 185 362 hsl 128 15 0 1 0 1 empty empty MID -2 -8 0 10 -262144
-1 -1 6200 1;
#X obj 180 196 hsl 128 15 0 1 0 1 empty empty CHARACTER -2 -8 0 10
-262144 -1 -1 6500 1;
#X obj 182 106 hsl 128 15 0 1 0 1 empty empty BLEND -2 -8 0 10 -262144
-1 -1 6400 1;
#X obj 87 181 - 1;
#X floatatom 87 218 5 0 0 0 - - -;
#X obj 87 200 * -1;
#X floatatom 179 135 5 0 0 0 - - -;
#X obj 52 255 *~;
#X obj 127 168 *~;
#X obj 124 346 +~;
#X connect 0 0 14 0;
#X connect 0 0 15 0;
#X connect 2 0 16 1;
#X connect 3 0 4 0;
#X connect 4 0 1 0;
#X connect 5 0 4 1;
#X connect 6 0 4 2;
#X connect 7 0 3 1;
#X connect 8 0 2 1;
#X connect 9 0 10 0;
#X connect 9 0 13 0;
#X connect 10 0 12 0;
#X connect 11 0 14 1;
#X connect 12 0 11 0;
#X connect 13 0 15 1;
#X connect 14 0 16 0;
#X connect 15 0 2 0;
#X connect 16 0 3 0;
